<?xml version="1.0" standalone="no"?><!DOCTYPE svg PUBLIC "-//W3C//DTD SVG 1.1//EN" "http://www.w3.org/Graphics/SVG/1.1/DTD/svg11.dtd"><svg t="1552901555249" class="icon" style="" viewBox="0 0 1024 1024" version="1.1" xmlns="http://www.w3.org/2000/svg" p-id="7586" xmlns:xlink="http://www.w3.org/1999/xlink" width="200" height="200"><defs><style type="text/css"></style></defs><path d="M512 31.0272C777.216 31.0272 992.9728 246.784 992.9728 512S777.216 992.9728 512 992.9728 31.0272 777.216 31.0272 512 246.784 31.0272 512 31.0272M512 0C229.6832 0 0 229.6832 0 512s229.6832 512 512 512c282.299733 0 512-229.6832 512-512S794.299733 0 512 0z" fill="#808080" p-id="7587"></path><path d="M511.300267 772.2496a11.349333 11.349333 0 0 1-11.3664-11.3664V263.099733a11.3664 11.3664 0 1 1 22.749866 0v497.783467a11.349333 11.349333 0 0 1-11.383466 11.3664z" fill="#808080" p-id="7588"></path><path d="M511.300267 780.014933a19.114667 19.114667 0 0 1-19.114667-19.114666V263.099733a19.114667 19.114667 0 0 1 38.2464 0v497.783467c0 10.564267-8.584533 19.131733-19.131733 19.131733z m0-520.516266a3.618133 3.618133 0 0 0-3.601067 3.601066v497.783467c0 3.976533 7.2192 3.959467 7.2192 0V263.099733a3.618133 3.618133 0 0 0-3.618133-3.601066z" fill="#808080" p-id="7589"></path><path d="M760.200533 523.383467H262.417067a11.383467 11.383467 0 1 1 0-22.766934h497.7664a11.3664 11.3664 0 0 1 0.017066 22.766934z" fill="#808080" p-id="7590"></path><path d="M760.200533 531.131733H262.417067c-10.5472 0-19.131733-8.584533-19.131734-19.131733s8.584533-19.131733 19.131734-19.131733h497.7664a19.1488 19.1488 0 0 1 0.017066 38.263466z m-497.783466-22.749866a3.618133 3.618133 0 0 0 0 7.236266h497.7664a3.618133 3.618133 0 0 0 0-7.236266H262.417067z" fill="#808080" p-id="7591"></path></svg>