<?xml version="1.0" standalone="no"?><!DOCTYPE svg PUBLIC "-//W3C//DTD SVG 1.1//EN" "http://www.w3.org/Graphics/SVG/1.1/DTD/svg11.dtd"><svg t="1552990926233" class="icon" style="" viewBox="0 0 1024 1024" version="1.1" xmlns="http://www.w3.org/2000/svg" p-id="2591" xmlns:xlink="http://www.w3.org/1999/xlink" width="200" height="200"><defs><style type="text/css"></style></defs><path d="M702.836364 544.581818h-167.563637v186.181818h-46.545454v-186.181818H321.163636v-46.545454h167.563637V349.090909h46.545454v148.945455h167.563637v46.545454z" fill="#1296db" p-id="2592"></path><path d="M512 23.272727C242.036364 23.272727 23.272727 242.036364 23.272727 512S242.036364 1000.727273 512 1000.727273 1000.727273 781.963636 1000.727273 512 781.963636 23.272727 512 23.272727zM512 977.454545C256 977.454545 46.545455 768 46.545455 512S256 46.545455 512 46.545455s465.454545 209.454545 465.454545 465.454545-209.454545 465.454545-465.454545 465.454545z" fill="#1296db" p-id="2593"></path><path d="M512 46.545455C256 46.545455 46.545455 256 46.545455 512s209.454545 465.454545 465.454545 465.454545 465.454545-209.454545 465.454545-465.454545S768 46.545455 512 46.545455z m0 907.636363c-242.036364 0-442.181818-200.145455-442.181818-442.181818S269.963636 69.818182 512 69.818182s442.181818 200.145455 442.181818 442.181818-200.145455 442.181818-442.181818 442.181818z" fill="#1296db" p-id="2594"></path><path d="M535.272727 498.036364V349.090909h-46.545454v148.945455H321.163636v46.545454h167.563637v186.181818h46.545454v-186.181818h167.563637v-46.545454z" fill="#1296db" p-id="2595"></path></svg>