<?xml version="1.0" standalone="no"?><!DOCTYPE svg PUBLIC "-//W3C//DTD SVG 1.1//EN" "http://www.w3.org/Graphics/SVG/1.1/DTD/svg11.dtd"><svg t="1552906157384" class="icon" style="" viewBox="0 0 1024 1024" version="1.1" xmlns="http://www.w3.org/2000/svg" p-id="3516" xmlns:xlink="http://www.w3.org/1999/xlink" width="200" height="200"><defs><style type="text/css"></style></defs><path d="M882.3 137.5c2.4 0 4.3 1.9 4.3 4.3v740c0 2.4-1.9 4.3-4.3 4.3h-740c-2.4 0-4.3-1.9-4.3-4.3v-740c0-2.4 1.9-4.3 4.3-4.3h740m0-5.7h-740c-5.5 0-10 4.5-10 10v740c0 5.5 4.5 10 10 10h740c5.5 0 10-4.5 10-10v-740c0-5.5-4.5-10-10-10z" fill="#0B9FFF" p-id="3517"></path><path d="M515.2 849.5c-185.6 0-336.6-151-336.6-336.6 0-185.6 151-336.6 336.6-336.6 185.6 0 336.6 151 336.6 336.6-0.1 185.6-151.1 336.6-336.6 336.6z m0-625c-159.1 0-288.5 129.4-288.5 288.5s129.4 288.5 288.5 288.5S803.7 672.1 803.7 513c-0.1-159.1-129.5-288.5-288.5-288.5z m0 0" fill="#0B9FFF" p-id="3518"></path></svg>