<?xml version="1.0" standalone="no"?><!DOCTYPE svg PUBLIC "-//W3C//DTD SVG 1.1//EN" "http://www.w3.org/Graphics/SVG/1.1/DTD/svg11.dtd"><svg t="1552906379907" class="icon" style="" viewBox="0 0 1024 1024" version="1.1" xmlns="http://www.w3.org/2000/svg" p-id="1145" xmlns:xlink="http://www.w3.org/1999/xlink" width="200" height="200"><defs><style type="text/css"></style></defs><path d="M153.83333304036464 518.0000002929688a373.50000000000006 319.49999999999994 0 1 0 747 0 373.50000000000006 319.49999999999994 0 1 0-747 0Z" fill="#FFFFFF" p-id="1146"></path><path d="M527.3333330403647 856.9999997070312c-105.00000029296875 0-202.5-34.49999970703125-277.49999970703124-99s-117.00000000000001-150.00000029296874-117.00000000000001-241.49999970703124 42.00000029296875-177.00000029296876 117.00000000000001-241.49999970703124C323.333333626302 212.00000029296876 422.3333336263021 176.00000029296876 527.3333330403647 176.00000029296876s202.5 34.49999970703125 277.50000058593747 99 117.00000000000001 150.00000029296874 117.00000000000001 241.49999970703124-42.00000029296875 177.00000029296876-117.00000000000001 241.49999970703124c-74.99999970703125 64.50000029296875-172.50000029296876 99-277.50000058593747 99z m0-640.4999994140626c-195.00000029296874 0-353.99999970703124 135-353.99999970703124 301.5s159.00000029296874 301.5 353.99999970703124 301.5 353.99999970703124-135 354.0000005859375-301.5-159.00000029296874-301.5-354.0000005859375-301.5z" fill="#8E9097" p-id="1147"></path></svg>