<?xml version="1.0" standalone="no"?><!DOCTYPE svg PUBLIC "-//W3C//DTD SVG 1.1//EN" "http://www.w3.org/Graphics/SVG/1.1/DTD/svg11.dtd"><svg t="1552906421863" class="icon" style="" viewBox="0 0 1024 1024" version="1.1" xmlns="http://www.w3.org/2000/svg" p-id="2005" xmlns:xlink="http://www.w3.org/1999/xlink" width="200" height="200"><defs><style type="text/css"></style></defs><path d="M512 512m-384 0a384 384 0 1 0 768 0 384 384 0 1 0-768 0Z" fill="#D7FAFF" p-id="2006"></path><path d="M512 915.2C289.664 915.2 108.8 734.304 108.8 512 108.8 289.664 289.664 108.8 512 108.8c222.304 0 403.2 180.864 403.2 403.2 0 222.304-180.896 403.2-403.2 403.2z m0-768C310.848 147.2 147.2 310.848 147.2 512S310.848 876.8 512 876.8 876.8 713.152 876.8 512 713.152 147.2 512 147.2z" fill="#00C1DE" p-id="2007"></path><path d="M512 915.2C289.312 915.2 108.8 734.688 108.8 512S289.312 108.8 512 108.8 915.2 289.312 915.2 512 734.688 915.2 512 915.2z m0-38.4c201.472 0 364.8-163.328 364.8-364.8S713.472 147.2 512 147.2 147.2 310.528 147.2 512 310.528 876.8 512 876.8z" fill="#00C1DE" p-id="2008"></path></svg>