<?xml version="1.0" standalone="no"?><!DOCTYPE svg PUBLIC "-//W3C//DTD SVG 1.1//EN" "http://www.w3.org/Graphics/SVG/1.1/DTD/svg11.dtd"><svg t="1554103317599" class="icon" style="" viewBox="0 0 1024 1024" version="1.1" xmlns="http://www.w3.org/2000/svg" p-id="2210" xmlns:xlink="http://www.w3.org/1999/xlink" width="200" height="200"><defs><style type="text/css"></style></defs><path d="M812.8 979.2H211.2c-51.2 0-89.6-38.4-89.6-89.6V384h44.8v505.6c0 25.6 19.2 44.8 44.8 44.8h601.6c25.6 0 44.8-19.2 44.8-44.8V384h44.8v505.6c0 44.8-44.8 89.6-89.6 89.6z" fill="#cdcdcd" p-id="2211"></path><path d="M512 428.8c-70.4 0-147.2-25.6-204.8-83.2-44.8 38.4-102.4 64-153.6 57.6C96 403.2 44.8 371.2 12.8 320L0 313.6l153.6-217.6C172.8 64 217.6 44.8 256 44.8h512c38.4 0 83.2 19.2 102.4 44.8 0 0 89.6 134.4 147.2 204.8l6.4 19.2-6.4 12.8c-38.4 51.2-96 83.2-160 83.2-57.6 0-108.8-25.6-140.8-64-57.6 51.2-128 83.2-204.8 83.2zM307.2 281.6l12.8 19.2C377.6 352 448 384 512 384c70.4 0 134.4-32 185.6-83.2l19.2-19.2 12.8 19.2c25.6 38.4 70.4 64 121.6 64 44.8 0 83.2-19.2 115.2-51.2-57.6-76.8-134.4-192-134.4-192-12.8-12.8-38.4-25.6-64-25.6H256c-25.6 0-51.2 12.8-64 25.6l-140.8 192c25.6 32 57.6 51.2 96 51.2 51.2 0 102.4-19.2 140.8-64l19.2-19.2z" fill="#cdcdcd" p-id="2212"></path><path d="M787.2 198.4H236.8c-12.8 0-19.2-12.8-19.2-19.2s12.8-19.2 19.2-19.2h550.4c12.8 0 19.2 12.8 19.2 19.2s-6.4 19.2-19.2 19.2z" fill="#cdcdcd" p-id="2213"></path></svg>