<?xml version="1.0" standalone="no"?><!DOCTYPE svg PUBLIC "-//W3C//DTD SVG 1.1//EN" "http://www.w3.org/Graphics/SVG/1.1/DTD/svg11.dtd"><svg t="1554103621527" class="icon" style="" viewBox="0 0 1024 1024" version="1.1" xmlns="http://www.w3.org/2000/svg" p-id="3128" xmlns:xlink="http://www.w3.org/1999/xlink" width="200" height="200"><defs><style type="text/css"></style></defs><path d="M999.776344 519.707527c-6.606452 0-13.212903-2.202151-17.617204-6.606452L530.71828 59.458065c-4.404301-4.404301-11.010753-8.808602-19.819355-8.808603-6.606452 0-13.212903 2.202151-19.819355 8.808603L41.84086 510.898925c-4.404301 4.404301-11.010753 6.606452-17.617204 6.606451s-13.212903-2.202151-17.617204-6.606451c-4.404301-4.404301-6.606452-8.808602-6.606452-15.415054 0-6.606452 2.202151-15.415054 6.606452-19.819355L455.845161 24.223656C471.260215 8.808602 488.877419 0 510.898925 0s39.63871 8.808602 55.053763 24.223656l449.23871 451.44086c4.404301 4.404301 6.606452 11.010753 6.606451 19.819355 0 6.606452-4.404301 15.415054-8.808602 17.617204-2.202151 4.404301-8.808602 6.606452-13.212903 6.606452z" fill="#cdcdcd" p-id="3129"></path><path d="M645.230108 1024v-35.234409h-35.234409V924.903226c0-55.053763-44.043011-96.894624-96.894624-96.894624-55.053763 0-96.894624 44.043011-96.894623 96.894624v63.862365h-35.234409v35.234409H178.374194c-44.043011 0-77.075269-35.234409-77.075269-77.075269V506.494624c0-15.415054 11.010753-26.425806 26.425806-26.425807S154.150538 491.07957 154.150538 506.494624v440.430107c0 15.415054 11.010753 26.425806 26.425806 26.425807h184.980645V924.903226A147.544086 147.544086 0 0 1 660.645161 924.903226v48.447312h184.980645c15.415054 0 26.425806-11.010753 26.425807-26.425807V506.494624c0-15.415054 11.010753-26.425806 26.425806-26.425807s26.425806 11.010753 26.425807 26.425807v440.430107c0 44.043011-35.234409 77.075269-77.075269 77.075269h-202.597849z" fill="#cdcdcd" p-id="3130"></path><path d="M609.995699 1024v-50.649462H660.645161v50.649462h-50.649462z m-246.64086 0v-50.649462h50.649462v50.649462h-50.649462z" fill="#cdcdcd" p-id="3131"></path></svg>